<?xml version="1.0" standalone="no"?><!DOCTYPE svg PUBLIC "-//W3C//DTD SVG 1.1//EN" "http://www.w3.org/Graphics/SVG/1.1/DTD/svg11.dtd"><svg t="1556888064480" class="icon" style="" viewBox="0 0 1024 1024" version="1.1" xmlns="http://www.w3.org/2000/svg" p-id="2935" xmlns:xlink="http://www.w3.org/1999/xlink" width="32" height="32"><defs><style type="text/css"></style></defs><path d="M778.638222 574.236444L346.168889 999.196444a86.755556 86.755556 0 0 1-122.112-0.682666A85.418667 85.418667 0 0 1 224.711111 877.226667l370.830222-364.373334L227.754667 146.375111A85.361778 85.361778 0 0 1 227.925333 25.088a86.670222 86.670222 0 0 1 122.140445 0.170667l428.828444 427.235555c0.085333 0.113778 0.085333 0.199111 0.170667 0.284445s0.170667 0.085333 0.284444 0.170666c7.936 7.964444 13.624889 17.237333 17.777778 26.936889 0.142222 0.312889 0.597333 0.682667 0.682667 1.024a85.333333 85.333333 0 0 1-19.171556 93.326222z" fill="#ffffff" p-id="2936"></path></svg>